<mxfile host="app.diagrams.net" agent="Mozilla/5.0 (Windows NT 10.0; Win64; x64; rv:133.0) Gecko/20100101 Firefox/133.0" version="25.0.3">
  <diagram name="Lapa-1" id="77Y0iJvOLOodqg3EVPmE">
    <mxGraphModel dx="1050" dy="559" grid="1" gridSize="10" guides="1" tooltips="1" connect="1" arrows="1" fold="1" page="1" pageScale="1" pageWidth="827" pageHeight="1169" math="0" shadow="0">
      <root>
        <mxCell id="0" />
        <mxCell id="1" parent="0" />
        <mxCell id="TkOLVOEPybVCUN1NsoD1-2" style="edgeStyle=orthogonalEdgeStyle;rounded=0;orthogonalLoop=1;jettySize=auto;html=1;exitX=0.5;exitY=1;exitDx=0;exitDy=0;" edge="1" parent="1" source="TkOLVOEPybVCUN1NsoD1-1">
          <mxGeometry relative="1" as="geometry">
            <mxPoint x="420" y="140" as="targetPoint" />
          </mxGeometry>
        </mxCell>
        <mxCell id="TkOLVOEPybVCUN1NsoD1-1" value="S훮kums" style="ellipse;whiteSpace=wrap;html=1;" vertex="1" parent="1">
          <mxGeometry x="360" y="40" width="120" height="80" as="geometry" />
        </mxCell>
        <mxCell id="TkOLVOEPybVCUN1NsoD1-6" style="edgeStyle=orthogonalEdgeStyle;rounded=0;orthogonalLoop=1;jettySize=auto;html=1;exitX=0.5;exitY=1;exitDx=0;exitDy=0;entryX=0.5;entryY=0;entryDx=0;entryDy=0;" edge="1" parent="1" source="TkOLVOEPybVCUN1NsoD1-3" target="TkOLVOEPybVCUN1NsoD1-7">
          <mxGeometry relative="1" as="geometry">
            <mxPoint x="420" y="220" as="targetPoint" />
          </mxGeometry>
        </mxCell>
        <mxCell id="TkOLVOEPybVCUN1NsoD1-3" value="&lt;div&gt;arr = mas카vs;&lt;br&gt;&lt;/div&gt;&lt;div&gt;n = elementu skaits mas카v훮;&lt;/div&gt;&lt;div&gt;i = 1;&lt;/div&gt;" style="rounded=0;whiteSpace=wrap;html=1;" vertex="1" parent="1">
          <mxGeometry x="360" y="140" width="120" height="60" as="geometry" />
        </mxCell>
        <mxCell id="TkOLVOEPybVCUN1NsoD1-12" style="edgeStyle=orthogonalEdgeStyle;rounded=0;orthogonalLoop=1;jettySize=auto;html=1;exitX=0;exitY=0.5;exitDx=0;exitDy=0;" edge="1" parent="1">
          <mxGeometry relative="1" as="geometry">
            <mxPoint x="340" y="270" as="targetPoint" />
            <mxPoint x="380" y="270" as="sourcePoint" />
          </mxGeometry>
        </mxCell>
        <mxCell id="TkOLVOEPybVCUN1NsoD1-52" style="edgeStyle=orthogonalEdgeStyle;rounded=0;orthogonalLoop=1;jettySize=auto;html=1;exitX=1;exitY=0.5;exitDx=0;exitDy=0;entryX=0.5;entryY=0;entryDx=0;entryDy=0;" edge="1" parent="1" target="TkOLVOEPybVCUN1NsoD1-10">
          <mxGeometry relative="1" as="geometry">
            <mxPoint x="460" y="270" as="sourcePoint" />
            <Array as="points">
              <mxPoint x="500" y="270" />
              <mxPoint x="500" y="440" />
              <mxPoint x="420" y="440" />
            </Array>
          </mxGeometry>
        </mxCell>
        <mxCell id="TkOLVOEPybVCUN1NsoD1-7" value="i &amp;lt; n" style="rhombus;whiteSpace=wrap;html=1;" vertex="1" parent="1">
          <mxGeometry x="380" y="230" width="80" height="80" as="geometry" />
        </mxCell>
        <mxCell id="TkOLVOEPybVCUN1NsoD1-10" value="&lt;div&gt;Beigas&lt;/div&gt;" style="ellipse;whiteSpace=wrap;html=1;" vertex="1" parent="1">
          <mxGeometry x="360" y="480" width="120" height="80" as="geometry" />
        </mxCell>
        <mxCell id="TkOLVOEPybVCUN1NsoD1-11" value="0" style="text;html=1;align=center;verticalAlign=middle;whiteSpace=wrap;rounded=0;" vertex="1" parent="1">
          <mxGeometry x="440" y="240" width="50" height="30" as="geometry" />
        </mxCell>
        <mxCell id="TkOLVOEPybVCUN1NsoD1-13" value="&lt;div&gt;1&lt;/div&gt;" style="text;html=1;align=center;verticalAlign=middle;whiteSpace=wrap;rounded=0;" vertex="1" parent="1">
          <mxGeometry x="340" y="240" width="60" height="30" as="geometry" />
        </mxCell>
        <mxCell id="TkOLVOEPybVCUN1NsoD1-15" style="edgeStyle=orthogonalEdgeStyle;rounded=0;orthogonalLoop=1;jettySize=auto;html=1;exitX=0.5;exitY=1;exitDx=0;exitDy=0;" edge="1" parent="1" source="TkOLVOEPybVCUN1NsoD1-14">
          <mxGeometry relative="1" as="geometry">
            <mxPoint x="280" y="320" as="targetPoint" />
          </mxGeometry>
        </mxCell>
        <mxCell id="TkOLVOEPybVCUN1NsoD1-14" value="&lt;div&gt;key = arr[i];&lt;/div&gt;&lt;div&gt;j = i - 1;&lt;br&gt;&lt;/div&gt;" style="rounded=0;whiteSpace=wrap;html=1;" vertex="1" parent="1">
          <mxGeometry x="220" y="240" width="120" height="60" as="geometry" />
        </mxCell>
        <mxCell id="TkOLVOEPybVCUN1NsoD1-85" style="edgeStyle=orthogonalEdgeStyle;rounded=0;orthogonalLoop=1;jettySize=auto;html=1;exitX=1;exitY=0.5;exitDx=0;exitDy=0;entryX=0;entryY=0.5;entryDx=0;entryDy=0;" edge="1" parent="1" source="TkOLVOEPybVCUN1NsoD1-16" target="TkOLVOEPybVCUN1NsoD1-38">
          <mxGeometry relative="1" as="geometry" />
        </mxCell>
        <mxCell id="TkOLVOEPybVCUN1NsoD1-88" style="edgeStyle=orthogonalEdgeStyle;rounded=0;orthogonalLoop=1;jettySize=auto;html=1;exitX=0.5;exitY=1;exitDx=0;exitDy=0;entryX=0.5;entryY=0;entryDx=0;entryDy=0;" edge="1" parent="1" source="TkOLVOEPybVCUN1NsoD1-16" target="TkOLVOEPybVCUN1NsoD1-87">
          <mxGeometry relative="1" as="geometry" />
        </mxCell>
        <mxCell id="TkOLVOEPybVCUN1NsoD1-16" value="j&amp;gt;=0 &amp;amp; arr[j]&amp;gt;key" style="rhombus;whiteSpace=wrap;html=1;" vertex="1" parent="1">
          <mxGeometry x="240" y="320" width="80" height="80" as="geometry" />
        </mxCell>
        <mxCell id="TkOLVOEPybVCUN1NsoD1-21" value="1" style="text;html=1;align=center;verticalAlign=middle;resizable=0;points=[];autosize=1;strokeColor=none;fillColor=none;" vertex="1" parent="1">
          <mxGeometry x="310" y="330" width="30" height="30" as="geometry" />
        </mxCell>
        <mxCell id="TkOLVOEPybVCUN1NsoD1-86" style="edgeStyle=orthogonalEdgeStyle;rounded=0;orthogonalLoop=1;jettySize=auto;html=1;exitX=0.5;exitY=0;exitDx=0;exitDy=0;entryX=0.5;entryY=0;entryDx=0;entryDy=0;" edge="1" parent="1" source="TkOLVOEPybVCUN1NsoD1-38" target="TkOLVOEPybVCUN1NsoD1-16">
          <mxGeometry relative="1" as="geometry">
            <Array as="points">
              <mxPoint x="420" y="320" />
            </Array>
          </mxGeometry>
        </mxCell>
        <mxCell id="TkOLVOEPybVCUN1NsoD1-38" value="&lt;div&gt;arr[j+1] = arr[j];&lt;/div&gt;&lt;div&gt;j -= 1;&lt;br&gt;&lt;/div&gt;" style="rounded=0;whiteSpace=wrap;html=1;" vertex="1" parent="1">
          <mxGeometry x="360" y="338" width="120" height="80" as="geometry" />
        </mxCell>
        <mxCell id="TkOLVOEPybVCUN1NsoD1-39" value="0" style="text;html=1;align=center;verticalAlign=middle;resizable=0;points=[];autosize=1;strokeColor=none;fillColor=none;" vertex="1" parent="1">
          <mxGeometry x="250" y="388" width="30" height="30" as="geometry" />
        </mxCell>
        <mxCell id="TkOLVOEPybVCUN1NsoD1-89" style="edgeStyle=orthogonalEdgeStyle;rounded=0;orthogonalLoop=1;jettySize=auto;html=1;exitX=0;exitY=0.5;exitDx=0;exitDy=0;entryX=0.5;entryY=0;entryDx=0;entryDy=0;" edge="1" parent="1" source="TkOLVOEPybVCUN1NsoD1-87" target="TkOLVOEPybVCUN1NsoD1-7">
          <mxGeometry relative="1" as="geometry" />
        </mxCell>
        <mxCell id="TkOLVOEPybVCUN1NsoD1-87" value="arr[j+1] = key;" style="rounded=0;whiteSpace=wrap;html=1;" vertex="1" parent="1">
          <mxGeometry x="220" y="418" width="120" height="60" as="geometry" />
        </mxCell>
      </root>
    </mxGraphModel>
  </diagram>
</mxfile>
